<svg width="16" height="4" viewBox="0 0 16 4" fill="none" xmlns="http://www.w3.org/2000/svg">
<path d="M1.86673 3.73333C0.8358 3.73333 6.50883e-05 2.8976 6.50883e-05 1.86667C6.50883e-05 0.835735 0.8358 0 1.86673 0C2.89766 0 3.7334 0.835735 3.7334 1.86667C3.7334 2.8976 2.89766 3.73333 1.86673 3.73333Z" fill="#858585"/>
<path d="M8.00003 3.73333C6.9691 3.73333 6.13337 2.8976 6.13337 1.86667C6.13337 0.835735 6.9691 0 8.00003 0C9.03096 0 9.8667 0.835735 9.8667 1.86667C9.8667 2.8976 9.03096 3.73333 8.00003 3.73333Z" fill="#858585"/>
<path d="M14.1333 3.73333C13.1024 3.73333 12.2667 2.8976 12.2667 1.86667C12.2667 0.835735 13.1024 0 14.1333 0C15.1643 0 16 0.835735 16 1.86667C16 2.8976 15.1643 3.73333 14.1333 3.73333Z" fill="#858585"/>
</svg>
