<svg fill="#000000" xmlns="http://www.w3.org/2000/svg"  viewBox="0 0 24 24" width="24px" height="24px"><path d="M6.791,11.577c-0.038-0.04-0.218-0.284-0.236-0.33c-0.059-0.052-0.175-0.236-0.229-0.309	c-0.079-0.105-0.149-0.2-0.222-0.304c-0.057-0.081-0.425-0.576-0.436-0.623l-0.993-0.004c0.016,0.052,1.065,1.501,1.185,1.661	c0.104,0.139,0.2,0.279,0.299,0.414c0.054,0.073,0.095,0.133,0.147,0.204c0.088,0.121,0.085,0.089,0.085,0.278	c-0.001,0.461-0.02,0.972,0,1.428l0.655,0.005l0,0l0.142-0.003c0.003-0.754,0.004-0.62-0.001-1.468	c-0.001-0.176,0.042-0.191,0.201-0.403c0.095-0.126,1.503-2.064,1.521-2.117H7.926L6.791,11.577z M3.802,12.114	c0.176-0.204,0.185-0.393,0.185-0.714c0-0.518,0.097-1.061-0.465-1.323c-0.222-0.103-0.548-0.073-0.82-0.073H0v0.803h1.588	c0.196,0,1.511-0.028,1.576,0.016c0.035,0.038,0.022,0.119,0.022,0.188c0,0.117,0.02,0.541-0.021,0.577	c-0.066,0.033-2.832,0.014-3.164,0.014v2.397l0.798-0.001v-1.595l1.468-0.002l0.921,1.597l0.918,0.001	c-0.051-0.143-0.879-1.496-0.905-1.597C3.491,12.394,3.674,12.263,3.802,12.114z M18.807,12.398l-0.001-0.795l-1.54,0.002	l-2.444-0.002v2.394l0,0L18.806,14l-0.001-0.801L17.355,13.2l-1.729-0.001l-0.005-0.794l1.719-0.001L18.807,12.398z M20.814,11.242	c0.054,0.035,1.821,2.107,2.08,2.406l0.306,0.347l0.8,0.003v-3.991h-0.792l-0.006,2.752c-0.068-0.036-1.284-1.48-1.384-1.59	c-0.267-0.293-0.596-0.719-0.856-0.996c-0.03-0.032-0.057-0.063-0.088-0.1c-0.035-0.042-0.035-0.066-0.112-0.067	c-0.236-0.002-0.51-0.01-0.743,0.002l-0.006,3.984l0.801,0.006L20.814,11.242z M18.807,10.804l-0.006-0.802l-3.978,0.005l0,0	l-0.003,0.8l2.313,0.001L18.807,10.804z M9.726,10.017l-0.001,0.786l0,0l2.751,0.005c-0.033,0.053-0.324,0.29-0.396,0.354	c-0.062,0.055-0.128,0.114-0.195,0.168l-0.995,0.858c-0.323,0.263-0.669,0.592-0.988,0.851c-0.036,0.03-0.064,0.058-0.102,0.086	c-0.04,0.031-0.072,0.044-0.076,0.115c-0.013,0.233,0.001,0.517,0.001,0.755l3.984,0.001v-0.796l-2.752-0.003	c0.028-0.047,0.321-0.287,0.385-0.346c0.064-0.058,0.127-0.109,0.195-0.167c0.066-0.057,0.133-0.119,0.201-0.174l0.297-0.254	c0.344-0.303,0.788-0.662,1.101-0.951l0.396-0.342c0.09-0.074,0.173-0.123,0.177-0.201c0.011-0.216,0.008-0.536-0.003-0.753	c-0.319-0.014-0.667-0.002-0.989-0.002C12.273,10.007,9.812,9.988,9.726,10.017z"/></svg>