<?xml version="1.0" ?><svg width="31.555px" height="31.555px" viewBox="0 -0.5 31.555 31.555" xmlns="http://www.w3.org/2000/svg"><g transform="translate(-353.172 -643.263)"><path d="M381.785,645.263a.944.944,0,0,1,.942.942v18.357a.943.943,0,0,1-.942.942H356.113a.942.942,0,0,1-.941-.942V646.205a.943.943,0,0,1,.941-.942h25.672m0-2H356.113a2.942,2.942,0,0,0-2.941,2.942v18.357a2.942,2.942,0,0,0,2.941,2.942h25.672a2.942,2.942,0,0,0,2.942-2.942V646.205a2.942,2.942,0,0,0-2.942-2.942Z"/><rect height="6.5" transform="translate(367.949 666.309)" width="2"/><path d="M376.373,673.809H362.79a1,1,0,0,1,0-2h13.583a1,1,0,0,1,0,2Z"/><path d="M383.373,663.084H354.79a1,1,0,0,1,0-2h28.583a1,1,0,0,1,0,2Z"/></g></svg>